<svg width="150" height="150" viewBox="0 0 559 651" fill="none" xmlns="http://www.w3.org/2000/svg">
<path d="M439.045 111.984C408.332 140.125 362.946 145.284 336.185 141.58C334.662 114.415 341.082 69.3505 371.795 41.2096C402.507 13.0688 436.369 21.3936 450.511 36.8279C464.653 52.2623 469.757 83.8433 439.045 111.984Z" fill="#02B309"/>
<path d="M438.85 112.078C408.137 140.219 362.751 145.377 335.99 141.674C334.467 114.509 340.887 69.4442 371.6 41.3034C402.313 13.1626 436.174 21.4874 450.316 36.9217C464.458 52.356 469.563 83.937 438.85 112.078Z" fill="#02B309"/>
<path d="M330.575 61.568C345.637 92.6186 344.218 122.685 334.116 141.871C313.18 135.667 288.385 114.49 278.653 83.2845C268.921 52.0795 267.979 27.3382 283.498 20.8475C299.017 14.3567 315.513 30.5174 330.575 61.568Z" fill="#008C06"/>
<path d="M325.812 105.766L356.99 109.455L347.631 139.672L327.1 137.243L325.812 105.766Z" fill="#843F21"/>
<ellipse cx="341.425" cy="107.051" rx="15.8033" ry="8.6759" transform="rotate(6.74874 341.425 107.051)" fill="#9E502E"/>
<ellipse cx="189.772" cy="157.66" rx="87.6755" ry="87.5082" fill="#8629A0"/>
<ellipse cx="188.434" cy="147.989" rx="78.9749" ry="78.3056" fill="#BB4ADA"/>
<ellipse cx="435.751" cy="195.859" rx="87.6755" ry="87.5082" transform="rotate(-50.6998 435.751 195.859)" fill="#8629A0"/>
<ellipse cx="427.419" cy="190.77" rx="78.9749" ry="78.3056" transform="rotate(-50.6998 427.419 190.77)" fill="#BB4ADA"/>
<ellipse cx="299.271" cy="202.072" rx="87.6755" ry="87.5082" fill="#8629A0"/>
<ellipse cx="297.932" cy="192.401" rx="78.9749" ry="78.3056" fill="#BB4ADA"/>
<ellipse cx="337.557" cy="372.827" rx="87.6755" ry="87.5082" fill="#8629A0"/>
<ellipse cx="336.219" cy="363.157" rx="78.9749" ry="78.3056" fill="#BB4ADA"/>
<ellipse cx="190.676" cy="401.978" rx="87.6755" ry="87.5082" fill="#8629A0"/>
<ellipse cx="189.337" cy="392.308" rx="78.9749" ry="78.3056" fill="#BB4ADA"/>
<ellipse cx="297.145" cy="272.717" rx="87.6755" ry="87.5082" transform="rotate(50.8837 297.145 272.717)" fill="#8629A0"/>
<ellipse cx="303.804" cy="265.578" rx="78.9749" ry="78.3056" transform="rotate(50.8837 303.804 265.578)" fill="#BB4ADA"/>
<ellipse cx="450.118" cy="315.399" rx="87.6755" ry="87.5082" fill="#8629A0"/>
<ellipse cx="448.78" cy="305.728" rx="78.9749" ry="78.3056" fill="#BB4ADA"/>
<ellipse cx="382.735" cy="413.41" rx="87.6755" ry="87.5082" fill="#8629A0"/>
<ellipse cx="381.396" cy="403.74" rx="78.9749" ry="78.3056" fill="#BB4ADA"/>
<ellipse cx="340.134" cy="459.567" rx="88.1968" ry="87.5082" transform="rotate(-73.5821 340.134 459.567)" fill="#8629A0"/>
<ellipse cx="330.477" cy="458.125" rx="79.4445" ry="78.3056" transform="rotate(-73.5821 330.477 458.125)" fill="#BB4ADA"/>
<ellipse cx="252.562" cy="563.494" rx="87.6755" ry="87.5082" fill="#8629A0"/>
<ellipse cx="251.223" cy="553.823" rx="78.9749" ry="78.3056" fill="#BB4ADA"/>
<ellipse cx="143.604" cy="289.603" rx="87.6755" ry="87.5082" transform="rotate(-44.9924 143.604 289.603)" fill="#8629A0"/>
<ellipse cx="135.82" cy="283.71" rx="78.9749" ry="78.3056" transform="rotate(-44.9924 135.82 283.71)" fill="#BB4ADA"/>
<ellipse cx="176.418" cy="121.88" rx="20.7751" ry="19.3048" transform="rotate(-44.9924 176.418 121.88)" fill="#F9E5FF"/>
<ellipse cx="258.048" cy="490.713" rx="87.6755" ry="87.5082" transform="rotate(-32.5702 258.048 490.713)" fill="#8629A0"/>
<ellipse cx="251.714" cy="483.285" rx="78.9749" ry="78.3056" transform="rotate(-32.5702 251.714 483.285)" fill="#BB4ADA"/>
<ellipse cx="258.914" cy="348.995" rx="87.6755" ry="87.5082" transform="rotate(-34.0777 258.914 348.995)" fill="#8629A0"/>
<ellipse cx="252.387" cy="341.735" rx="78.9749" ry="78.3056" transform="rotate(-34.0777 252.387 341.735)" fill="#BB4ADA"/>
<path d="M275.709 362.874C281.868 371.978 279.417 384.394 270.235 390.605C261.053 396.816 248.617 394.471 242.458 385.367C236.3 376.263 238.75 363.848 247.932 357.636C257.114 351.425 269.55 353.77 275.709 362.874Z" fill="#F9E4FF"/>
</svg>
